<?xml version="1.0" encoding="utf-8"?>
<!-- Generator: Adobe Illustrator 23.0.0, SVG Export Plug-In . SVG Version: 6.00 Build 0)  -->
<svg version="1.1" id="Layer_1" xmlns="http://www.w3.org/2000/svg" xmlns:xlink="http://www.w3.org/1999/xlink" x="0px" y="0px"
	 viewBox="0 0 18 18" enable-background="new 0 0 18 18" xml:space="preserve">
<path fill="#6B768A" d="M16.1,13.2C16,13.2,14,11.4,14,7c0-2.5-1.6-4-3.5-4.5C10.5,1.6,9.8,1,9,1S7.5,1.6,7.5,2.5C5.6,3,4,4.5,4,7
	c0,4.4-2,6.2-2.1,6.2c-0.3,0.3-0.5,0.7-0.3,1.1C1.7,14.7,2.1,15,2.5,15h4.3c0.1,1.1,1.1,2,2.2,2c1.2,0,2.1-0.9,2.2-2h4.3
	c0.4,0,0.8-0.3,0.9-0.7C16.6,13.9,16.5,13.5,16.1,13.2z M4.5,13C5.3,11.7,6,9.8,6,7c0-2.2,1.9-2.8,3-2.8s3,0.6,3,2.8
	c0,2.8,0.7,4.7,1.5,6H4.5z"/>
</svg>
