<?xml version="1.0" encoding="utf-8"?>
<!-- Generator: Adobe Illustrator 23.0.0, SVG Export Plug-In . SVG Version: 6.00 Build 0)  -->
<svg version="1.1" id="Layer_1" xmlns="http://www.w3.org/2000/svg" xmlns:xlink="http://www.w3.org/1999/xlink" x="0px" y="0px"
	 viewBox="0 0 16 16" enable-background="new 0 0 16 16" xml:space="preserve">
<path fill="#838EA0" d="M3,15c-0.2,0-0.3,0-0.5-0.1C2.2,14.7,2,14.4,2,14v-3.7C0.7,9.4,0,8.3,0,7c0-2.8,3.5-5,8-5c4.5,0,8,2.2,8,5
	s-3.5,5-8,5c-0.1,0-0.1,0-0.2,0l-4.3,2.8C3.4,14.9,3.2,15,3,15z M8,4C4.5,4,2,5.6,2,7c0,0.7,0.5,1.4,1.5,1.9C3.8,9.1,4,9.4,4,9.8
	v2.3l3-2C7.1,10,7.3,10,7.6,10c0.2,0,0.3,0,0.4,0c3.5,0,6-1.6,6-3S11.5,4,8,4z"/>
</svg>
