<?xml version="1.0" encoding="utf-8"?>
<!-- Generator: Adobe Illustrator 23.0.0, SVG Export Plug-In . SVG Version: 6.00 Build 0)  -->
<svg version="1.1" id="Layer_1" xmlns="http://www.w3.org/2000/svg" xmlns:xlink="http://www.w3.org/1999/xlink" x="0px" y="0px"
	 viewBox="0 0 1016 646" enable-background="new 0 0 1016 646" xml:space="preserve">
<path fill="#DEE0E5" d="M872,0H620c-4.4,0-8,3.6-8,8v244c0,4.4,3.6,8,8,8h252c4.4,0,8-3.6,8-8V8C880,3.6,876.4,0,872,0z M1008,0H892
	c-4.4,0-8,3.6-8,8v305c0,4.4,3.6,8,8,8h116c4.4,0,8-3.6,8-8V8C1016,3.6,1012.4,0,1008,0z"/>
<path fill="#838EA0" d="M898.9,528l-194-194c-12.1-12.1-31.7-12.1-43.8,0l0,0c-12.1,12.1-12.1,31.7,0,43.8l194,194
	c12.1,12.1,31.7,12.1,43.8,0h0C911,559.7,911,540.1,898.9,528z M678,126c17.1,0,31-13.9,31-31c0-17.1-13.9-31-31-31s-31,13.9-31,31
	C647,112.1,660.9,126,678,126z M814,126c17.1,0,31-13.9,31-31c0-17.1-13.9-31-31-31s-31,13.9-31,31C783,112.1,796.9,126,814,126z
	 M678,191c17.1,0,31-13.9,31-31c0-17.1-13.9-31-31-31s-31,13.9-31,31C647,177.1,660.9,191,678,191z M372,191c17.1,0,31-13.9,31-31
	c0-17.1-13.9-31-31-31s-31,13.9-31,31C341,177.1,354.9,191,372,191z M304,191c17.1,0,31-13.9,31-31c0-17.1-13.9-31-31-31
	s-31,13.9-31,31C273,177.1,286.9,191,304,191z M338,324c-17.1,0-31,13.9-31,31c0,17.1,13.9,31,31,31s31-13.9,31-31
	C369,337.9,355.1,324,338,324z M474,324c-17.1,0-31,13.9-31,31c0,17.1,13.9,31,31,31s31-13.9,31-31C505,337.9,491.1,324,474,324z
	 M406,454c-17.1,0-31,13.9-31,31c0,17.1,13.9,31,31,31s31-13.9,31-31C437,467.9,423.1,454,406,454z M542,454c-17.1,0-31,13.9-31,31
	c0,17.1,13.9,31,31,31s31-13.9,31-31C573,467.9,559.1,454,542,454z M814,256c17.1,0,31-13.9,31-31c0-17.1-13.9-31-31-31
	s-31,13.9-31,31C783,242.1,796.9,256,814,256z M412,195H268v-73h-16v89h160V195z"/>
</svg>
