<?xml version="1.0" encoding="utf-8"?>
<!-- Generator: Adobe Illustrator 23.0.0, SVG Export Plug-In . SVG Version: 6.00 Build 0)  -->
<svg version="1.1" id="Layer_1" xmlns="http://www.w3.org/2000/svg" xmlns:xlink="http://www.w3.org/1999/xlink" x="0px" y="0px"
	 viewBox="0 0 1016 646" enable-background="new 0 0 1016 646" xml:space="preserve">
<path fill="#DEE0E5" d="M876,118H624c-4.4,0-8,3.6-8,8v244c0,4.4,3.6,8,8,8h252c4.4,0,8-3.6,8-8V126C884,121.6,880.4,118,876,118z
	 M1012,118H896c-4.4,0-8,3.6-8,8v305c0,4.4,3.6,8,8,8h116c4.4,0,8-3.6,8-8V126C1020,121.6,1016.4,118,1012,118z"/>
<path fill="#838EA0" d="M902.9,646l-194-194c-12.1-12.1-31.7-12.1-43.8,0l0,0c-12.1,12.1-12.1,31.7,0,43.8l194,194
	c12.1,12.1,31.7,12.1,43.8,0h0C915,677.7,915,658.1,902.9,646z M682,244c17.1,0,31-13.9,31-31s-13.9-31-31-31s-31,13.9-31,31
	S664.9,244,682,244z M818,244c17.1,0,31-13.9,31-31s-13.9-31-31-31s-31,13.9-31,31S800.9,244,818,244z M682,309
	c17.1,0,31-13.9,31-31s-13.9-31-31-31s-31,13.9-31,31S664.9,309,682,309z M376,309c17.1,0,31-13.9,31-31s-13.9-31-31-31
	c-17.1,0-31,13.9-31,31S358.9,309,376,309z M308,309c17.1,0,31-13.9,31-31s-13.9-31-31-31c-17.1,0-31,13.9-31,31S290.9,309,308,309z
	 M342,442c-17.1,0-31,13.9-31,31c0,17.1,13.9,31,31,31c17.1,0,31-13.9,31-31C373,455.9,359.1,442,342,442z M478,442
	c-17.1,0-31,13.9-31,31c0,17.1,13.9,31,31,31c17.1,0,31-13.9,31-31C509,455.9,495.1,442,478,442z M410,572c-17.1,0-31,13.9-31,31
	c0,17.1,13.9,31,31,31c17.1,0,31-13.9,31-31C441,585.9,427.1,572,410,572z M546,572c-17.1,0-31,13.9-31,31c0,17.1,13.9,31,31,31
	s31-13.9,31-31C577,585.9,563.1,572,546,572z M818,374c17.1,0,31-13.9,31-31c0-17.1-13.9-31-31-31s-31,13.9-31,31
	C787,360.1,800.9,374,818,374z M416,313H272v-73h-16v89h160V313z"/>
</svg>
