<?xml version="1.0" encoding="utf-8"?>
<!-- Generator: Adobe Illustrator 23.0.0, SVG Export Plug-In . SVG Version: 6.00 Build 0)  -->
<svg version="1.1" id="Layer_1" xmlns="http://www.w3.org/2000/svg" xmlns:xlink="http://www.w3.org/1999/xlink" x="0px" y="0px"
	 viewBox="0 0 16 16" enable-background="new 0 0 16 16" xml:space="preserve">
<path fill="#ffffff" d="M10.9,8.5c0.9-0.8,1.4-1.9,1.4-3.2C12.3,2.9,10.4,1,8,1S3.7,2.9,3.7,5.3c0,1.3,0.6,2.4,1.4,3.2
	C2.7,9.4,1,11.8,1,14.5V15H15v-0.5C15,11.8,13.3,9.4,10.9,8.5z M8,3c1.3,0,2.3,1,2.3,2.3S9.3,7.6,8,7.6s-2.3-1-2.3-2.3S6.7,3,8,3z
	 M3.3,13c0.6-1.7,2.3-3,4.2-3h1c1.9,0,3.6,1.2,4.2,3H3.3z"/>
</svg>
