<?xml version="1.0" encoding="utf-8"?>
<!-- Generator: Adobe Illustrator 23.0.0, SVG Export Plug-In . SVG Version: 6.00 Build 0)  -->
<svg version="1.1" id="Layer_1" xmlns="http://www.w3.org/2000/svg" xmlns:xlink="http://www.w3.org/1999/xlink" x="0px" y="0px"
	 viewBox="0 0 80 58" enable-background="new 0 0 80 58" xml:space="preserve">
<path fill="#000754" d="M51.7,24.3c-1.2-0.9-3.2-1.6-4.8-1.2c-1.2,0.3-2.1,1.2-2.4,1.6c-0.1,0.1-0.3,0.3-0.4,0.4
	c-0.1,0.1-0.1,0.1-0.2,0.1s-0.1-0.1-0.1-0.2c0-0.2-0.1-0.5-0.1-0.7c-0.1-0.4-0.4-0.7-0.8-0.7c-0.3,0-0.5,0.7-0.5,0.9
	c-0.1,0.8,0.1,1.7,0.2,2.5c0.1,1,0.9,5.8,0.9,6.4c-0.1,0.7-0.1,1.6-0.3,2.3c-0.3,1-1.8,5-1.9,5.4c-1.2,3.3-1.6,5.9-1.6,7.9
	c0,1.6,0.5,3.7,1.1,4.7c0.9,1.6,2.8,4.1,6.4,3.3c0.7-0.2,2-0.8,2.8-1.8c0.9-1.2,1-2.6,1.2-3.2c0.1-0.5,0.1-1.1,0.1-1.7
	c0-0.7-0.1-1.5-0.3-2.2c-0.1-0.2-0.3-0.4-0.5-0.4c-0.3-0.1-0.6,0.9-0.7,1.2c-0.3,1.4-0.5,4.1-2.3,5.5c-0.7,0.5-1.8,0.7-2.5,0.4
	c-2.2-0.9-2.7-4-2.8-6c0-2.3,0.6-5.2,1.2-6.8c0.7-2.3,1.6-4.5,1.6-4.9c0.3-0.9,0.5-2,0.4-3c-0.1-0.7-0.1-1.4-0.2-2.2
	c-0.1-0.9-0.4-1.8-0.5-2.6c-0.1-0.3,0-1.4,0.4-2.2c0.3-0.8,1.1-1.3,1.4-1.5c0.8-0.6,1.7-0.6,2.6-0.3c0.5,0.2,1,0.6,1.5,1
	c0.5,0.5,1.4,1.8,1.3,4.3c-0.1,0.9-0.5,2.2-1.2,2.8c-0.7,0.7-1.8,0.5-2.2,0c-0.1-0.2-0.3-0.9-0.6-1c-0.7-0.3-1.1,0.6-1.1,0.7
	c-0.3,1.5,1.8,2.8,3.8,2.8c1.3-0.1,2.2-0.4,3.3-2c0.9-1.3,1-3.3,1-3.8c0-1.1-0.3-2.2-0.7-3.2C53.8,26.8,52.9,25.3,51.7,24.3z
	 M25.1,32.9c-0.1-0.8-0.6-4.1-0.7-5c-0.1-0.7,0.1-3.4,0.1-3.9c-0.1-1-0.5-1.9-1.6-1.9c-0.1,0-0.3,0-0.3,0.1c-0.4,0.2-0.7,0.5-0.7,1
	c-0.2,0.9-0.2,1.9-0.2,2.8c0,1.2,0.1,2.4-0.5,3.4c-0.4,0.7-0.8,1.4-1.6,1.9c-1.6,0.6-2.4-0.5-2.8-1.2c-0.9-1.4-0.7-3.4-0.7-3.9
	c0.1-0.5,0.2-1.2,0.3-1.7c0-0.1-0.4-0.9-1-0.9c-0.1,0.1-0.7,1.1-0.9,2.4c-0.2,1.7-0.1,3.4,0.3,4.8c0.5,1.6,1.9,2.4,2.2,2.6
	c0.7,0.5,1.4,0.6,2.2,0.6c0.7,0,1.3-0.2,1.9-0.5c0.3-0.1,0.5-0.3,0.8-0.4c0.3-0.1,0.5-0.1,0.5,0.3c0.1,0.3,0.7,4.5,0.7,5.1
	c0.1,0.7,0.2,4.2,0,5.8c-0.3,2.4-1.4,4.7-2.8,6.2c-1.7,1.6-3.9,2-4.6,2c-1.7,0.1-3.2-0.5-3.8-0.9c-0.9-0.6-1.6-1.5-1.6-1.7
	c-0.3-0.6-0.7-1.6-0.5-2.8c0.1-0.9,0.9-1.7,1-2c0.2-0.5,0.1-1.2-0.4-1.4c-0.2-0.1-0.7-0.1-0.9-0.1c-0.3,0.1-1.4,0.8-1.9,2.2
	c-0.7,2.1,0.3,4.3,1.1,5.3c1.1,1.4,2.6,2.5,3.9,2.9c2.1,0.7,5.2,0.9,7.7-0.6c2.9-1.8,4.3-4.5,4.5-5.4c0.1-0.2,0.7-1.7,0.9-2.7
	c0.6-2.9,0.1-6.1-0.1-7.7C25.5,35.8,25.3,34.3,25.1,32.9z M9.6,37.7c1.5-0.5,2.6-2,2.9-2.8c0.9-2,0.8-3.7,0.8-4.1s-0.1-0.6-0.2-0.9
	c-0.7-1.4-1.6-2.4-1.9-2.7c-0.3-0.3-0.7-0.4-0.8-0.1c-0.2,0.4,0,1.5,0.1,1.8c0.5,2.2,0.1,4.7-1.2,6c-1.2,1.2-2.9,0.7-3.7-0.2
	c-0.8-1-1.4-2.6-1.8-4.5c-0.1-0.7-0.5-4.4-0.6-5.4C3,23.8,3,22.7,3,21.7c-0.1-1.6-0.1-8.5,0.3-12C3.6,7.4,4.2,5.1,5,3.9
	c0.5-0.7,1-1.1,1.8-1.3C7,2.6,7.2,2.6,7.4,2.8C7.7,3.4,7.8,4,7.9,4.6C8,5.5,7.8,6.4,7.7,7.2C7.6,7.8,7.6,7.8,8.1,8.1
	C8.2,8.2,9,8.6,9.3,7.8c0.1-0.2,0.1-0.5,0.1-0.7c0.1-0.6,0.9-3.5-0.3-5C8.7,1.6,7.6,1,6.5,1c-0.9,0-1.7,0.5-2,0.7
	C4.2,1.9,2.9,2.5,1.8,5.3c-0.5,1.5-1.1,5.2-1.3,8.1C0.3,16,0.4,20,0.4,20.7c0.2,4.1,0.5,8.3,1,10.4c0.7,2.8,1.8,5.2,4,6.2
	C6.3,37.7,8.2,38.2,9.6,37.7z M79.5,33.9c-0.1-0.5-0.5-1-0.9-1.3c-0.3-0.1-0.9,0.5-1,0.9c-0.1,0.3,0.2,2.2-1,3
	c-0.8,0.6-2.2,0.5-3.3-0.1c-1.4-0.9-1.7-2.6-1.8-2.9c-0.3-1.2-0.3-2.4-1.5-4.2c-0.7-1.2-1.7-1.8-2-2.2c0-0.1-0.1-0.1-0.1-0.2
	c-0.3-0.5-0.7-0.9-1.4-1.1c-0.6-0.1-1.1,0.5-0.9,1.1c0.5,1.7,0.5,3.4,0.3,4.1c-0.3,1.1-1.2,2.2-2.3,2.5c-1.1,0.2-2.1,0.1-2.6-0.3
	c-0.8-0.5-1.3-1-1.6-2c-0.1-0.4-0.2-1.7,0.4-2.7c0.5-0.7,0.8-1.1,1.8-1.3c0.5-0.1,0.8,0.3,0.8,0.3c-0.3,1.5,0.5,1.8,0.8,1.8
	c0.6,0,1.2-0.5,1-1.8c-0.1-0.7-0.6-1.5-0.9-1.8C62.8,25.4,62,25,61,25c-0.5,0-1.8,0.3-2.7,1.1c-0.9,0.9-1.4,2.2-1.5,2.7
	c-0.1,0.5-0.1,2,0.3,3c0.7,1.8,1.9,2.9,2.6,3.3c0.9,0.5,2,0.9,3,0.9c0.6,0,2.2-0.2,3.5-1.2c1.6-1.1,2-2.8,2-3.2
	c0.1-0.1,0.3-0.7,0.5-0.3c0.1,0.4,0.1,1.4,0.5,2.6c0.7,2.5,2.3,4.1,3.3,4.7c1.8,1,4.3,0.9,5.4,0C79.8,37,79.7,34.7,79.5,33.9z
	 M39.8,28.3C39.5,27,39,25.9,38.1,25c-1.7-1.6-3.3-1.5-4.1-1.4c-2.7,1-3.7,3.9-4,4.1c-0.3-0.2-0.3-0.5-0.3-0.7
	c-0.1-0.5-0.3-1.1-0.7-1.6c-0.3-0.4-0.7-0.7-1.4-0.7c-0.3,0.2,0.1,1.3,0.1,1.5c0.3,1.6,0.5,3.3,0.5,4.9v3.9
	c-0.1,0.7,1.4,1.4,1.8,1.4c0.3,0,0.4-1.8,0.5-2.5c0.1-1.1,0.6-3.6,2.1-5.7c0.3-0.5,1.2-2,2.4-2.2c1.3-0.3,1.9,0.9,2.2,1.6
	c0.5,1.4,0.3,3.7,0.1,4.5c-0.3,1-0.9,2.7-1.8,4c-0.7,1.2-2.7,3-3,3.5c-0.3,0.7,0.3,0.9,0.7,1c0.5,0,1.6-0.6,2-1
	c0.9-0.7,1.8-1.7,2.2-2.2c1.4-2,2.4-4.5,2.5-5.7C40,30.7,40.1,29.5,39.8,28.3z M60.3,21.7c0.3,0,2.3-0.7,5.5-2.6
	c1.4-0.7,2.6-1.6,2.9-1.8c0.7-0.5,1.4-1.2,1.8-1.9c0.1-0.3,0.4-1.2,0.5-2c0-0.8-0.3-1.5-0.5-1.8c-0.3-0.7-0.7-1.2-1.4-1.5
	c-0.5-0.3-1.4-0.1-1.8,0.3c-0.3,0.5,0.5,1.1,0.7,1.2c0.3,0.2,0.5,0.5,0.6,0.9c0.1,0.7-0.1,1.3-0.5,1.8c-0.6,0.7-1.4,1.4-2.2,2
	c-0.7,0.5-5.1,3.6-5.8,4.1c-0.2,0.1-0.3,0.3-0.4,0.5C59.7,21.2,59.9,21.7,60.3,21.7z"/>
</svg>
