<?xml version="1.0" encoding="utf-8"?>
<!-- Generator: Adobe Illustrator 23.0.0, SVG Export Plug-In . SVG Version: 6.00 Build 0)  -->
<svg version="1.1" id="Layer_1" xmlns="http://www.w3.org/2000/svg" xmlns:xlink="http://www.w3.org/1999/xlink" x="0px" y="0px"
	 viewBox="0 0 18 18" enable-background="new 0 0 18 18" xml:space="preserve">
<path fill="#838ea0" d="M13,16H5c-1.7,0-3-1.3-3-3V5c0-1.7,1.3-3,3-3h8c1.7,0,3,1.3,3,3v8C16,14.7,14.7,16,13,16z M5,4
	C4.4,4,4,4.4,4,5v8c0,0.6,0.4,1,1,1h8c0.6,0,1-0.4,1-1V5c0-0.6-0.4-1-1-1H5z"/>
</svg>
