<?xml version="1.0" encoding="utf-8"?>
<!-- Generator: Adobe Illustrator 23.0.0, SVG Export Plug-In . SVG Version: 6.00 Build 0)  -->
<svg version="1.1" id="Layer_1" xmlns="http://www.w3.org/2000/svg" xmlns:xlink="http://www.w3.org/1999/xlink" x="0px" y="0px"
	 viewBox="0 0 16 16" enable-background="new 0 0 16 16" xml:space="preserve">
<path fill="#838EA0" d="M8,1C4.1,1,1,4.1,1,8c0,3.9,3.1,7,7,7s7-3.1,7-7C15,4.1,11.9,1,8,1z M8,13.3c-2.9,0-5.3-2.4-5.3-5.3
	c0-2.9,2.4-5.3,5.3-5.3s5.3,2.4,5.3,5.3C13.3,10.9,10.9,13.3,8,13.3z M7.1,7.6L4.5,9.6L5.6,11l3.2-2.6V4H7.1V7.6z"/>
</svg>
